<?xml version="1.0" ?><svg enable-background="new 0 0 64 64" version="1.1" viewBox="0 0 64 64" xml:space="preserve" xmlns="http://www.w3.org/2000/svg" xmlns:xlink="http://www.w3.org/1999/xlink"><g id="Layer_1"/><g id="icon"><path d="M51.588,8.008H21.569c-2.414,0-4.379,1.964-4.379,4.379v4.815h-4.818c-2.413,0-4.376,1.963-4.376,4.376v30.024   c0,2.413,1.963,4.376,4.376,4.376h30.024c2.413,0,4.376-1.963,4.376-4.376v-4.818h4.815c2.414,0,4.379-1.965,4.379-4.379V12.387   C55.967,9.972,54.002,8.008,51.588,8.008z M44.772,51.602c0,1.311-1.065,2.376-2.376,2.376H12.372   c-1.311,0-2.376-1.065-2.376-2.376V21.578c0-1.311,1.065-2.376,2.376-2.376h30.024c1.311,0,2.376,1.065,2.376,2.376V51.602z    M53.967,42.405c0,1.312-1.067,2.379-2.379,2.379h-4.815V21.578c0-2.413-1.963-4.376-4.376-4.376H19.19v-4.815   c0-1.312,1.067-2.379,2.379-2.379h30.019c1.312,0,2.379,1.067,2.379,2.379V42.405z"/></g></svg>